# xmcd
#
# Track frame offsets:
#	150
#	19320
#	33525
#	47292
#	65695
#	82122
#	99152
#	125977
#	144970
#	156867
#	174750
#	190935
#	204700
#	221827
#
# Disc length: 3180 seconds
#
# Revision: 0
# Processed by: cddbd v1.5.1PL0 Copyright (c) Steve Scherf et al.
# Submitted via: audiograbber 1.83.01
#
DISCID=c70c6a0e
DTITLE=Camilo Sesto - The Best Vol. Ii
DYEAR=1996
DGENRE=Ballad
TTITLE0=Ayudame
TTITLE1=Olvidalo
TTITLE2=Amor Libre
TTITLE3=Alguien
TTITLE4=Adios
TTITLE5=Que Dificil Es Ser Feliz
TTITLE6=Y Qué
TTITLE7=Celos
TTITLE8=Llueve Sobre Mojado
TTITLE9=Vistete De Blanco
TTITLE10=No Cierres Tus Ojos
TTITLE11=Con El Viento A Tu Favor
TTITLE12=Alma De Nadie
TTITLE13=Dejarse Querer
EXTD=
EXTT0=
EXTT1=
EXTT2=
EXTT3=
EXTT4=
EXTT5=
EXTT6=
EXTT7=
EXTT8=
EXTT9=
EXTT10=
EXTT11=
EXTT12=
EXTT13=
PLAYORDER=
